# xmcd
#
# Track frame offsets:
#	150
#	14059
#	33429
#	56500
#	75490
#	93448
#	117159
#	131737
#	149582
#	171894
#	183293
#	201071
#
# Disc length: 2869 seconds
# Revision: 0
# Processed by: cddbd v1.5.2PL0 Copyright (c) Steve Scherf et al.
# Submitted via: dBpowerAMP V12.0
#
DISCID=a40b330c
DTITLE=Kathy Barwick - In My Life
DYEAR=2011
DGENRE=Country
TTITLE0=Nashville Blues
TTITLE1=Josefin's Waltz
TTITLE2=Tell Me Why
TTITLE3=Poll Ha'Penny
TTITLE4=Chief O'Neill's Favorite/Cuckoo's Nest
TTITLE5=My Native Home
TTITLE6=Sadie at the Back Door/Kickin' Up the Devil on a Holiday
TTITLE7=Boys of Ballisodare/Star Above the Garter
TTITLE8=On the Modoc Line
TTITLE9=Red Haired Boy
TTITLE10=Florida Blues
TTITLE11=In My Life
EXTD=
EXTT0=
EXTT1=
EXTT2=
EXTT3=
EXTT4=
EXTT5=
EXTT6=
EXTT7=
EXTT8=
EXTT9=
EXTT10=
EXTT11=
PLAYORDER=
